<?xml version="1.0" encoding="UTF-8"?>
<svg xmlns="http://www.w3.org/2000/svg" width="220" height="260" viewBox="0 0 220 260" fill="none">
  <!-- Hand-drawn marker-style arrow (white, transparent background) -->
  <g opacity="0.98">
    <!-- main stroke (slight wobble) -->
    <path
      d="M110 22
         C112 48, 106 68, 110 94
         C114 120, 105 140, 110 166
         C114 192, 108 206, 110 224"
      stroke="#FFFFFF"
      stroke-width="18"
      stroke-linecap="round"
      stroke-linejoin="round"
    />

    <!-- subtle secondary stroke for marker texture -->
    <path
      d="M104 26
         C106 52, 101 72, 105 98
         C109 124, 100 144, 105 170
         C109 196, 103 210, 104 222"
      stroke="#FFFFFF"
      stroke-width="10"
      stroke-linecap="round"
      stroke-linejoin="round"
      opacity="0.55"
    />

    <!-- arrow head (hand-drawn) -->
    <path
      d="M72 198
         C92 216, 100 232, 110 246
         C120 232, 128 216, 148 198"
      stroke="#FFFFFF"
      stroke-width="18"
      stroke-linecap="round"
      stroke-linejoin="round"
    />

    <!-- inner head texture -->
    <path
      d="M78 202
         C95 218, 103 232, 110 242
         C117 232, 125 218, 142 202"
      stroke="#FFFFFF"
      stroke-width="10"
      stroke-linecap="round"
      stroke-linejoin="round"
      opacity="0.55"
    />
  </g>
</svg>
